<?xml version="1.0" encoding="utf-8"?>
<!-- Generator: Adobe Illustrator 22.0.0, SVG Export Plug-In . SVG Version: 6.00 Build 0)  -->
<svg version="1.1" id="Layer_1" xmlns="http://www.w3.org/2000/svg" xmlns:xlink="http://www.w3.org/1999/xlink" x="0px" y="0px"
	 viewBox="0 0 800 800" style="enable-background:new 0 0 800 800;" xml:space="preserve">
<style type="text/css">
	.st0{fill:#ACABB7;}
	.st1{fill:#4E4B5B;}
</style>
<g>
	<path class="st0" d="M399.7,89.5c-171.3,0-309.5,138-310.1,309.5c-0.6,171.8,137.7,310.9,309.6,311.5
		c171,0.6,310.6-138.7,311.1-310.5C710.8,228.5,571.7,89.5,399.7,89.5z M563.2,491.8c-7.9,48-41.5,78.2-89.9,79.4
		c-50.3,1.2-100.6,1.2-150.8,0c-49.3-1.2-86-33.1-90-81.9c-4.7-57.5-5-115.4,0.3-172.9c4.3-46.3,41.2-78.9,87.6-79.8
		c51.7-1.1,103.4-1.1,155-0.1c50.5,1,87.9,40,89.5,92.1c0.8,25.1,0.1,50.3,0.1,82.7C563.9,433.3,568,462.8,563.2,491.8z"/>
	<path class="st0" d="M469.4,266.6c-23.7-0.5-47.5-0.1-71.2-0.1c0,0,0,0,0,0c-23.3,0-46.6-0.2-69.8,0c-43.8,0.5-67.2,23.9-67.5,67.6
		c-0.2,45.6-0.2,91.3,0,136.9c0.2,42.1,23.9,67.8,65.8,68.9c47.5,1.2,95,1.2,142.4,0c42.5-1.1,65.3-26.2,65.5-68.8
		c0.1-46.1,0.3-92.2-0.1-138.3C534.2,292.4,509.6,267.5,469.4,266.6z M397.8,488.1c-47.6,0.2-86.7-38.5-86.5-85.5
		c0.2-47.6,38.6-85.6,86.4-85.6c47.5,0,86.6,38.6,86.6,85.6C484.3,449.9,445.8,487.9,397.8,488.1z M486.6,333.1
		c-10.8-0.1-19.3-8.6-19.7-19.5c-0.4-11.6,8.2-20.9,19.4-21.1c11.2-0.3,20.4,8.8,20.4,20.2C506.9,324.2,498,333.2,486.6,333.1z"/>
	<path class="st0" d="M397.9,347.2c-31.2-0.3-56.1,24.3-56.2,55.3c0,30.4,24.4,54.9,54.8,55.2c31.1,0.3,56.4-24.5,56.4-55.3
		C453,372.3,428.3,347.4,397.9,347.2z"/>
</g>
</svg>
