<?xml version="1.0" encoding="utf-8"?>
<!-- Generator: Adobe Illustrator 22.0.0, SVG Export Plug-In . SVG Version: 6.00 Build 0)  -->
<svg version="1.1" id="Layer_1" xmlns="http://www.w3.org/2000/svg" xmlns:xlink="http://www.w3.org/1999/xlink" x="0px" y="0px"
	 viewBox="0 0 800 800" style="enable-background:new 0 0 800 800;" xml:space="preserve">
<style type="text/css">
	.st0{fill:#ACABB7;}
	.st1{fill:#4E4B5B;}
</style>
<path class="st0" d="M709,362.7c-3.3-29.5-11.1-58-22.8-85.4c-15.3-35.8-36.6-67.6-63.8-95.3c-22.2-22.7-47.4-41.4-75.3-56.6
	c-28.3-15.4-58.3-25.5-89.7-31.8c-10.8-2.1-21.8-2.8-32.8-4.1c-0.7,0-1.3,0-2,0c-1,0.7-2,0.7-3,0c-1,0-2,0-3,0c-1.9,1.1-4,0.3-6,0.5
	c-2.3-0.3-4.6,0.6-6.8-0.5c-2.6,0-5.3,0-7.9,0c-2,0.8-4,0.8-5.9,0c-0.7,0-1.3,0-2,0c-2,0.8-4,0.8-5.9,0c-3,0-5.9,0-8.9,0
	c-1.7,0.8-3.5,1-5.3,1c-9.3-0.1-18.4,1.7-27.5,3.4c-53.6,10.5-101.2,33.7-142.9,68.9c-32.1,27.2-57.3,60.1-76.3,97.6
	c-14.4,28.5-23.7,58.6-28.9,90.1c-1.2,7.5-0.8,15.1-2.6,22.5c0,3,0,5.9,0,8.9c0.8,2,0.8,4,0,5.9c0,0.7,0,1.3,0,2c0.8,2,0.8,4,0,5.9
	c0,2.3,0,4.6,0,6.9c0.8,2.3,0.8,4.6,0,6.9c0,2,0,4,0,5.9c0.7,0.6,0.5,1.4,0.5,2.2c-0.1,0.9,0.3,2-0.5,2.8c0,1.7,0,3.3,0,5
	c1.5,14.7,3.3,29.4,6.6,43.9c5.3,22.6,12.6,44.5,22.8,65.3c18.2,37.2,42.4,69.8,73.5,97.4c26.5,23.5,55.8,42.3,88.5,55.6
	c31.4,12.8,63.9,21.2,98,22.3c23.4,0.8,46.8,1,70.1-2.7c39.9-6.4,77.3-19.9,111.9-40.9c37-22.5,68.2-51.4,93.2-86.8
	c16.8-23.7,30.4-49.2,39.7-76.8c9-26.7,15.4-53.9,16.3-82.3C710.6,401.2,711.1,381.9,709,362.7z M486.5,273.8c0,3.2-0.8,4.3-4.2,4.2
	c-8.6-0.2-17.2-0.1-25.8-0.1c-4.5,0-8.9,0.1-13.3,1c-8.7,1.7-13.2,6.2-13.5,15c-0.5,12.9-0.3,25.8-0.6,38.6
	c-0.1,3.7,2.2,2.9,4.2,2.9c16.2,0,32.4,0.1,48.5-0.1c3.8,0,5,0.6,4.5,4.8c-2.1,17.7-3.9,35.4-5.5,53.2c-0.4,4.8-1.6,6.7-6.9,6.5
	c-13-0.5-26.1,0-39.1-0.2c-4.3-0.1-5.7,0.8-5.7,5.5c0.2,58.1,0.1,116.2,0.1,174.4c0,6.3,0,6.3-6.4,6.3c-19.5,0-39-0.1-58.5,0.1
	c-4.1,0-5.3-1.1-5.3-5.2c0.2-29.4,0.1-58.8,0.1-88.2c0-29.2-0.1-58.5,0.1-87.7c0-3.9-0.7-5.4-5-5.2c-12.5,0.3-25.1,0-37.6,0.2
	c-3.3,0.1-4.1-1-4-4.1c0.2-18.7,0.2-37.3,0-56c0-3.6,1.1-4.4,4.5-4.3c12.4,0.2,24.8-0.1,37.2,0.2c4.3,0.1,5.1-1.3,5.1-5.2
	c-0.1-16.5-0.9-33,0.7-49.5c1.3-14.3,3.4-28.4,11.5-41c8.5-13.2,21.1-19.9,35.8-23.5c9-2.2,18.3-2.5,27.6-2.6
	c15.8-0.2,31.7,0,47.6-0.1c3.3,0,4.2,1,4.2,4.2C486.3,236.4,486.4,255.1,486.5,273.8z"/>
</svg>
