<?xml version="1.0" encoding="utf-8"?>
<!-- Generator: Adobe Illustrator 22.0.0, SVG Export Plug-In . SVG Version: 6.00 Build 0)  -->
<svg version="1.1" id="Layer_1" xmlns="http://www.w3.org/2000/svg" xmlns:xlink="http://www.w3.org/1999/xlink" x="0px" y="0px"
	 viewBox="0 0 800 800" style="enable-background:new 0 0 800 800;" xml:space="preserve">
<style type="text/css">
	.st0{fill:#ACABB7;}
	.st1{fill:#4E4B5B;}
</style>
<path class="st0" d="M333.7,91.2C162.8,91.4,24.5,229.9,25,400.2c0.5,171,138.6,308.9,309.2,308.6
	c170.4-0.3,308.3-138.4,308.4-308.7C642.6,229.5,504.1,91,333.7,91.2z M255,440.7c0,33-0.1,66,0.1,99c0,4.5-0.8,6.2-5.8,6.1
	c-19.5-0.3-39-0.3-58.6,0c-4.4,0.1-5.7-1.1-5.7-5.5c0.1-66.4,0.2-132.8,0-199.3c0-5.1,1.9-5.7,6.2-5.7c19.3,0.2,38.6,0.2,57.9,0
	c4.6-0.1,6,1,6,5.8C254.9,374.3,255,407.5,255,440.7z M257.3,283.1c-5.4,14.7-19.2,23.3-37.3,23.3c-27.9,0.1-45.8-23.7-36.9-48.8
	c6.9-19.4,31.1-29.1,52.9-21.1C255,243.3,264.4,263.9,257.3,283.1z M501.4,545.7c-19.3-0.2-38.6-0.3-57.9,0c-5,0.1-6.4-1.1-6.3-6.2
	c0.3-34.6,0.1-69.1,0.1-103.7c0-8.1-0.4-16.2-2.5-24c-6.7-25.7-35.7-35.1-56.3-18.1c-10.1,8.3-14.9,19.2-14.9,32.4
	c0.1,37.7-0.1,75.4,0.2,113.1c0,5.4-1.5,6.6-6.7,6.5c-19.3-0.3-38.6-0.2-57.9,0c-4.3,0-5.6-1-5.6-5.5c0.2-66.7,0.2-133.3,0.1-200
	c0-3.7,0.7-5,4.7-5c20.2,0.2,40.4,0.2,60.6,0c3.9,0,4.9,1.2,4.7,4.9c-0.3,7.6-0.1,15.2-0.1,24.3c29-38.6,79.6-45.8,114-17.2
	c16.4,13.6,23.9,32,27.5,52.4c1.4,8,1.9,16.1,1.9,24.1c0.1,38.8,0,77.7,0.2,116.5C507.2,545.1,505.5,545.7,501.4,545.7z"/>
</svg>
