<?xml version="1.0" encoding="utf-8"?>
<!-- Generator: Adobe Illustrator 22.0.0, SVG Export Plug-In . SVG Version: 6.00 Build 0)  -->
<svg version="1.1" id="Layer_1" xmlns="http://www.w3.org/2000/svg" xmlns:xlink="http://www.w3.org/1999/xlink" x="0px" y="0px"
	 viewBox="0 0 800 800" style="enable-background:new 0 0 800 800;" xml:space="preserve">
<style type="text/css">
	.st0{fill:#ACABB7;}
	.st1{fill:#4E4B5B;}
</style>
<g>
	<path class="st0" d="M400,89.8C228.7,89.8,89.8,228.7,89.8,400c0,171.3,138.9,310.3,310.2,310.3c171.3,0,310.3-138.9,310.3-310.3
		C710.2,228.7,571.3,89.8,400,89.8L400,89.8z M555.9,344.8L480,420.7c-8.2,8.2-19.2,12.8-30.8,12.8c-11.6,0-22.6-4.5-30.8-12.8l-3-3
		l-8.1,8.1l3,3c17,17,17,44.6,0,61.6l-75.9,75.9c-8.2,8.2-19.2,12.8-30.8,12.8s-22.6-4.5-30.8-12.8l-28.7-28.7
		c-17-17-17-44.6,0-61.6l75.9-75.9c8.2-8.2,19.2-12.8,30.8-12.8c11.6,0,22.6,4.5,30.8,12.8l3,3l8.1-8.1l-3-3c-17-17-17-44.6,0-61.6
		l75.9-75.9c8.2-8.2,19.2-12.8,30.8-12.8c11.6,0,22.6,4.5,30.8,12.8l28.7,28.7C572.9,300.1,572.9,327.8,555.9,344.8L555.9,344.8z
		 M555.9,344.8"/>
	<path class="st0" d="M384.6,448.5l-14.7,14.7l-22.8-22.8l14.7-14.7l-3-3c-2.2-2.2-5-3.3-8-3.3c-3.1,0-5.9,1.2-8.1,3.3l-75.9,75.9
		c-4.4,4.4-4.4,11.7,0,16.1l28.7,28.7c4.3,4.3,11.8,4.3,16.1,0l75.9-75.9c4.4-4.4,4.4-11.7,0-16.1L384.6,448.5z M384.6,448.5"/>
	<path class="st0" d="M504.4,277.2c-2.2-2.2-5-3.3-8.1-3.3c-3,0-5.9,1.2-8.1,3.3l-75.9,75.9c-4.4,4.4-4.4,11.7,0,16.1l3,3l22.5-22.5
		l22.8,22.8l-22.5,22.5l3,3c4.3,4.3,11.8,4.3,16.1,0l75.9-75.9c4.4-4.4,4.4-11.7,0-16.1L504.4,277.2z M504.4,277.2"/>
</g>
</svg>
