<?xml version="1.0" encoding="utf-8"?>
<!-- Generator: Adobe Illustrator 22.0.0, SVG Export Plug-In . SVG Version: 6.00 Build 0)  -->
<svg version="1.1" id="Layer_1" xmlns="http://www.w3.org/2000/svg" xmlns:xlink="http://www.w3.org/1999/xlink" x="0px" y="0px"
	 viewBox="0 0 800 800" style="enable-background:new 0 0 800 800;" xml:space="preserve">
<style type="text/css">
	.st0{fill:#ACABB7;}
	.st1{fill:#4E4B5B;}
</style>
<path class="st1" d="M400,137.5c-8.9,0-17.7,0.5-26.3,1.3c-31.6,3.2-61.6,11.9-88.9,25.3C197.6,206.8,137.5,296.4,137.5,400
	c0,54.3,16.5,104.8,44.8,146.7l-27.9,104l106-28.4c40.4,25.5,88.3,40.2,139.6,40.2c100.6,0,188-56.7,232.1-139.8
	c15.5-29.3,25.7-61.8,29.1-96.3c0.9-8.7,1.3-17.5,1.3-26.3C662.5,255,545,137.5,400,137.5z M482.1,561.6
	c-61.1-8.3-115.4-33.3-159.3-77.6c-38.4-38.7-74.7-79.5-88.8-134.1c-9.2-35.6,1.3-66.4,27.5-92.1c7.7-7.5,16.8-10.6,28.3-9.2
	c15.8-3.5,24.6,5.3,30.1,19.6c5.9,15.4,10.5,31.6,18.7,45.6c10.4,17.9,4.8,30.9-6.9,44.6c-17.5,20.4-17.2,20.5-1.9,42.9
	c25.7,37.6,59.7,64.7,101.8,82.1c9.5,3.9,15.4,2.8,21.3-5c6.8-8.9,14.5-17.2,21-26.3c6.7-9.4,14.2-11.1,24.3-6.1
	c20.6,10.2,41.3,20.1,62.2,29.7c7.1,3.3,8.6,8.2,8.7,15.4C570.3,534.2,530.6,568.2,482.1,561.6z"/>
</svg>
