<svg id="Layer_1" data-name="Layer 1" xmlns="http://www.w3.org/2000/svg" viewBox="0 0 1920 1080"><defs><style>.cls-1{fill:#1636bf;}.cls-2{fill:#e810ff;}</style></defs><title>CYCLOPAY_LOGO FINAL v3</title><path class="cls-1" d="M138.68,453c20.65,0,37.69,7,52.09,21.39l4.21,4.21,39-39-4.22-4.21c-24.91-24.91-55.56-37.54-91.07-37.54-35.24,0-65.73,12.63-90.64,37.54S10.5,490.76,10.5,526,23.13,591.73,48,616.63s55.4,37.54,90.64,37.54c35.51,0,66.16-12.63,91.07-37.53l4.22-4.22-39-39-4.21,4.21C176.38,592,159.34,599,138.68,599c-20.38,0-37.27-7-51.66-21.39S65.63,546.37,65.63,526s7-37.27,21.39-51.66S118.31,453,138.68,453Z"/><path class="cls-1" d="M644.85,453c20.65,0,37.69,7,52.09,21.39l4.21,4.21,39-39-4.22-4.21c-24.92-24.91-55.56-37.54-91.07-37.54-35.24,0-65.74,12.63-90.64,37.54s-37.54,55.4-37.54,90.64,12.63,65.73,37.54,90.63,55.4,37.54,90.64,37.54c35.51,0,66.15-12.63,91.07-37.53l4.22-4.22-39-39-4.21,4.21C682.54,592,665.51,599,644.85,599c-20.38,0-37.28-7-51.66-21.39S571.8,546.37,571.8,526s7-37.27,21.39-51.66S624.48,453,644.85,453Z"/><rect class="cls-1" x="768.56" y="290.92" width="55.57" height="360.16"/><path class="cls-1" d="M1254.76,397.82c-24.6,0-46.62,6.6-65.63,19.63V401.71H1134V786.15h55.13V635.4c18.42,12.46,40.44,18.77,65.63,18.77,35.51,0,66.22-12.62,91.28-37.52s37.77-55.41,37.77-90.65c0-35.54-12.71-66.12-37.79-90.89S1290.27,397.82,1254.76,397.82Zm0,201.22c-17.78,0-32.28-5.6-44.33-17.12s-19.1-26.51-21.3-44.93V515c2.2-18.4,9.37-33.52,21.3-44.92S1237,453,1254.76,453c20.68,0,37.8,6.94,52.35,21.21s21.56,31.2,21.56,51.84c0,20.35-7.06,37.24-21.58,51.63S1275.43,599,1254.76,599Z"/><path class="cls-1" d="M1602.12,417.45c-19-13-41-19.63-65.62-19.63-35.24,0-65.73,12.63-90.64,37.54s-37.54,55.4-37.54,90.64,12.63,65.73,37.54,90.63,55.4,37.54,90.64,37.54c24.6,0,46.62-6.59,65.62-19.63v16.53h55.13V401.71h-55.13Zm0,118.24c-2.21,18.73-9.39,34.16-21.34,45.84S1554.25,599,1536.5,599c-20.38,0-37.27-7-51.66-21.39s-21.39-31.28-21.39-51.65,7-37.27,21.39-51.66S1516.13,453,1536.5,453c17.74,0,32.23,5.73,44.28,17.51s19.13,27.11,21.34,45.84Z"/><path class="cls-1" d="M1909,557.39c.32-3.53.49-7.11.49-10.75V401.71h-55V546.64c0,14.55-5,26.64-15.34,37s-22.41,15.34-37,15.34-26.64-5-37-15.34-15.34-22.41-15.34-37V401.71h-55V546.64c0,29.48,10.59,55,31.47,75.89S1772.67,654,1802.15,654c19.14,0,36.62-4.5,52.25-13.36v13.72c0,22.09-7.59,40.49-23.21,56.24s-33.91,23.39-56,23.39c-22.64,0-41-7.63-56.16-23.33l-4.07-4.23-39,39,4,4.07c25.66,26.27,57.7,39.59,95.24,39.59,36.93,0,68.88-13.31,95-39.55s39.31-58.27,39.31-95.18v-97Z"/><path class="cls-1" d="M485,557.39q.5-5.29.49-10.75V401.71h-55V546.64c0,14.55-5,26.64-15.34,37s-22.41,15.34-37,15.34-26.64-5-37-15.34-15.33-22.41-15.33-37V401.71H270.81V546.64c0,29.48,10.59,55,31.47,75.89S348.69,654,378.17,654c19.14,0,36.62-4.5,52.25-13.36v13.72c0,22.09-7.59,40.49-23.21,56.24S373.3,734,351.23,734c-22.64,0-41-7.63-56.15-23.33L291,706.42l-39,39,4,4.07c25.66,26.27,57.7,39.59,95.24,39.59,36.93,0,68.88-13.31,95-39.55s39.31-58.27,39.31-95.18v-97Z"/><path class="cls-2" d="M919.68,568.62c-10.19-13.8-14.64-29.25-13.59-47,1.21-20.32,9.2-36.78,24.44-50.32s32.53-19.52,52.86-18.32c17.7,1.05,32.48,7.26,44.93,18.91l41.29-36.77c-22.53-22.75-50.39-35.27-83-37.2-35.18-2.09-66.39,8.72-92.75,32.13S853.11,483.15,851,518.33c-1.94,32.69,7.27,61.93,27.36,87.06Z"/><path class="cls-1" d="M1038.32,483.06c10.27,13.83,14.77,29.34,13.71,47.19-1.21,20.33-9.2,36.79-24.44,50.32s-32.53,19.53-52.86,18.32c-17.77-1-32.59-7.3-45.08-19l-41.28,36.77c22.55,22.84,50.46,35.41,83.1,37.34,35.18,2.09,66.39-8.72,92.75-32.13s40.78-53.12,42.88-88.31c1.93-32.76-7.32-62.06-27.49-87.22Z"/></svg>