<svg id="Layer_1" data-name="Layer 1" xmlns="http://www.w3.org/2000/svg" viewBox="0 0 1920 1080"><title>CYCLOPAY_LOGO FINAL v3</title><path d="M157.06,631.83c-21.88-29.61-31.43-62.78-29.16-100.94,2.58-43.63,19.73-79,52.46-108S250.18,381,293.82,383.54c38,2.26,69.72,15.58,96.46,40.59l88.63-78.94c-48.37-48.83-108.18-75.71-178.08-79.85-75.53-4.48-142.52,18.73-199.11,69s-87.56,114.05-92,189.56c-4.16,70.17,15.61,133,58.73,186.89Z"/><path d="M411.74,448.18c22,29.68,31.7,63,29.43,101.29-2.6,43.65-19.75,79-52.46,108s-69.82,41.92-113.47,39.33c-38.16-2.27-70-15.68-96.78-40.89L89.84,734.85c48.41,49,108.33,76,178.4,80.17,75.52,4.48,142.51-18.73,199.1-69s87.54-114,92-189.57c4.16-70.32-15.71-133.23-59-187.23Z"/><path d="M749.57,479.44c13.53,0,24.7,4.58,34.13,14l2.76,2.76L812,470.67l-2.76-2.76c-16.33-16.33-36.41-24.6-59.68-24.6-23.09,0-43.08,8.28-59.4,24.6s-24.6,36.3-24.6,59.39,8.28,43.08,24.6,59.4,36.31,24.6,59.4,24.6c23.27,0,43.35-8.28,59.68-24.6l2.76-2.76-25.55-25.55-2.76,2.76c-9.43,9.43-20.59,14-34.13,14a47.87,47.87,0,1,1,0-95.73Z"/><path d="M1081.26,479.44c13.54,0,24.7,4.58,34.14,14l2.76,2.76,25.55-25.54-2.77-2.76c-16.32-16.33-36.4-24.6-59.68-24.6-23.09,0-43.07,8.28-59.39,24.6s-24.6,36.3-24.6,59.39,8.27,43.08,24.6,59.4,36.3,24.6,59.39,24.6c23.28,0,43.36-8.28,59.68-24.6l2.77-2.76-25.55-25.55-2.76,2.76c-9.43,9.43-20.6,14-34.14,14a47.87,47.87,0,1,1,0-95.73Z"/><rect x="1162.33" y="373.26" width="36.42" height="236.01"/><path d="M1480.94,443.31c-16.12,0-30.55,4.32-43,12.86V445.86h-36.13V697.79h36.13V599c12.07,8.17,26.5,12.31,43,12.31,23.28,0,43.4-8.27,59.82-24.59s24.75-36.31,24.75-59.41c0-23.28-8.33-43.32-24.76-59.55S1504.21,443.31,1480.94,443.31Zm0,131.86c-11.65,0-21.15-3.67-29-11.22s-12.51-17.37-14-29.44V520.09c1.44-12.06,6.14-22,14-29.43s17.41-11.22,29-11.22c13.56,0,24.78,4.54,34.31,13.89s14.13,20.45,14.13,34a45.53,45.53,0,0,1-14.14,33.84C1505.71,570.58,1494.49,575.17,1480.94,575.17Z"/><path d="M1708.57,456.17c-12.45-8.54-26.88-12.86-43-12.86-23.09,0-43.08,8.28-59.4,24.6s-24.6,36.3-24.6,59.39,8.28,43.08,24.6,59.4,36.31,24.6,59.4,24.6c16.12,0,30.55-4.32,43-12.87v10.84h36.13V445.86h-36.13Zm0,77.48c-1.45,12.28-6.15,22.39-14,30.05s-17.39,11.47-29,11.47a47.87,47.87,0,1,1,0-95.73c11.63,0,21.12,3.75,29,11.47s12.53,17.77,14,30Z"/><path d="M1909.68,547.87q.32-3.45.32-7v-95h-36.08v95a34.27,34.27,0,0,1-68.54,0v-95H1769.3v95a70.56,70.56,0,0,0,104.59,61.6v9c0,14.48-5,26.54-15.2,36.86S1836.46,663.6,1822,663.6c-14.84,0-26.88-5-36.8-15.29l-2.67-2.77L1757,671.09l2.61,2.67c16.81,17.22,37.81,26,62.41,26,24.2,0,45.14-8.73,62.24-25.92S1910,635.6,1910,611.41V547.87Z"/><path d="M976.54,547.87q.32-3.45.32-7v-95H940.78v95a34.28,34.28,0,0,1-68.55,0v-95H836.16v95a70.56,70.56,0,0,0,104.59,61.6v9c0,14.48-5,26.54-15.21,36.86s-22.22,15.33-36.69,15.33c-14.83,0-26.87-5-36.79-15.29l-2.67-2.77-25.55,25.55,2.6,2.67c16.82,17.22,37.82,26,62.41,26,24.2,0,45.15-8.73,62.25-25.92s25.76-38.19,25.76-62.38V547.87Z"/><path d="M1261.36,555.23c-6.67-9-9.59-19.16-8.9-30.81a47.92,47.92,0,0,1,50.65-45c11.61.69,21.28,4.75,29.45,12.39l27-24.1c-14.76-14.91-33-23.11-54.36-24.38-23-1.36-43.5,5.72-60.78,21.06s-26.73,34.82-28.09,57.87c-1.27,21.42,4.76,40.59,17.92,57.05Z"/><path d="M1339.11,499.17c6.73,9.06,9.68,19.22,9,30.92a47.9,47.9,0,0,1-50.65,45c-11.65-.69-21.36-4.78-29.54-12.48l-27.06,24.09c14.78,15,33.07,23.21,54.46,24.48,23.06,1.36,43.51-5.72,60.78-21.06s26.73-34.81,28.1-57.87c1.27-21.47-4.79-40.67-18-57.16Z"/></svg>