<svg id="Layer_1" data-name="Layer 1" xmlns="http://www.w3.org/2000/svg" viewBox="0 0 1920 1080"><defs><style>.cls-1{fill:#1636bf;}.cls-2{fill:#e810ff;}.cls-3{isolation:isolate;}</style></defs><title>CYCLOPAY_LOGO FINAL v3</title><rect x="474.9" y="1078.47" width="537.1" height="3.06"/><path class="cls-1" d="M1039.5,463.88c10.38,14,14.92,29.64,13.85,47.69-1.22,20.55-9.3,37.18-24.69,50.85s-32.88,19.74-53.42,18.52c-18-1.07-32.94-7.39-45.57-19.25L888,598.84c22.79,23.08,51,35.79,84,37.75,35.55,2.1,67.09-8.82,93.73-32.48s41.22-53.68,43.33-89.25c2-33.11-7.39-62.72-27.78-88.14Z"/><path class="cls-1" d="M129.59,432.7c20.89,0,38.11,7.07,52.67,21.63l4.26,4.26,39.42-39.42-4.26-4.26c-25.2-25.18-56.18-38-92.09-38C94,377,63.14,389.73,38,414.91S0,470.93,0,506.55,12.77,573,38,598.19s56,38,91.64,38c35.91,0,66.89-12.77,92.09-37.95l4.26-4.27-39.42-39.41-4.26,4.26c-14.55,14.55-31.78,21.62-52.67,21.62-20.6,0-37.68-7.07-52.22-21.62s-21.63-31.63-21.63-52.23,7.08-37.67,21.63-52.22S109,432.7,129.59,432.7Z"/><path class="cls-1" d="M641.36,432.7c20.88,0,38.11,7.07,52.67,21.63l4.26,4.26,39.41-39.42-4.26-4.26c-25.19-25.18-56.17-38-92.08-38-35.62,0-66.46,12.77-91.64,38s-38,56-38,91.64,12.77,66.47,38,91.64,56,38,91.64,38c35.91,0,66.89-12.77,92.08-37.95l4.26-4.27-39.41-39.41L694,558.78c-14.55,14.55-31.78,21.62-52.67,21.62-20.6,0-37.68-7.07-52.23-21.62s-21.62-31.63-21.62-52.23,7.07-37.67,21.62-52.22S620.77,432.7,641.36,432.7Z"/><rect class="cls-1" x="766.44" y="268.88" width="56.18" height="364.14"/><path class="cls-1" d="M1258,377c-24.88,0-47.14,6.67-66.35,19.85V380.9h-55.74V769.59h55.74V617.16c18.62,12.61,40.88,19,66.35,19,35.91,0,67-12.77,92.29-37.94s38.19-56,38.19-91.66c0-35.92-12.86-66.84-38.21-91.88S1293.92,377,1258,377Zm0,203.44c-18,0-32.64-5.66-44.83-17.31s-19.3-26.8-21.52-45.42V495.43c2.22-18.61,9.46-33.89,21.52-45.42s26.86-17.31,44.83-17.31c20.91,0,38.22,7,52.93,21.44s21.8,31.55,21.8,52.41c0,20.58-7.14,37.66-21.82,52.21S1278.92,580.4,1258,580.4Z"/><path class="cls-1" d="M1609.22,396.81C1590,383.63,1567.75,377,1542.87,377c-35.62,0-66.46,12.77-91.64,38s-38,56-38,91.64,12.77,66.47,38,91.64,56,38,91.64,38c24.88,0,47.14-6.67,66.35-19.85V633H1665V380.9h-55.74Zm0,119.54c-2.23,18.95-9.49,34.54-21.58,46.35s-26.82,17.7-44.77,17.7c-20.6,0-37.68-7.07-52.23-21.62S1469,527.15,1469,506.55s7.07-37.67,21.62-52.22,31.64-21.63,52.23-21.63c18,0,32.59,5.79,44.77,17.7s19.35,27.41,21.58,46.35Z"/><path class="cls-1" d="M1919.51,538.29c.32-3.56.49-7.18.49-10.87V380.9h-55.66V527.42c0,14.71-5.08,26.94-15.51,37.37s-22.66,15.51-37.37,15.51-26.94-5.07-37.37-15.51-15.51-22.66-15.51-37.37V380.9h-55.66V527.42c0,29.81,10.7,55.63,31.81,76.73S1781.66,636,1811.46,636c19.36,0,37-4.54,52.83-13.5v13.87c0,22.33-7.68,40.94-23.46,56.86s-34.29,23.64-56.61,23.64c-22.89,0-41.46-7.71-56.77-23.58l-4.12-4.27-39.42,39.42,4,4.12c26,26.56,58.34,40,96.29,40,37.34,0,69.65-13.46,96-40S1920,673.65,1920,636.33v-98Z"/><path class="cls-1" d="M479.78,538.29q.5-5.34.49-10.87V380.9H424.61V527.42c0,14.71-5.07,26.94-15.51,37.37s-22.66,15.51-37.37,15.51-26.93-5.07-37.37-15.51-15.51-22.66-15.51-37.37V380.9H263.19V527.42c0,29.81,10.71,55.63,31.81,76.73S341.93,636,371.73,636c19.36,0,37-4.54,52.83-13.5v13.87c0,22.33-7.67,40.94-23.46,56.86s-34.28,23.64-56.6,23.64c-22.9,0-41.47-7.71-56.78-23.58L283.6,689,244.18,728.4l4,4.12c25.94,26.56,58.34,40,96.29,40,37.33,0,69.64-13.46,96-40s39.74-58.91,39.74-96.23v-98Z"/><path class="cls-2" d="M919.23,549.65c-10.3-13.95-14.8-29.57-13.73-47.55,1.21-20.54,9.29-37.19,24.71-50.87s32.88-19.74,53.44-18.53c17.9,1.07,32.83,7.34,45.43,19.12l41.74-37.18C1048,391.64,1019.87,379,987,377c-35.57-2.11-67.13,8.82-93.78,32.49s-41.24,53.72-43.35,89.28c-2,33.05,7.36,62.62,27.67,88Z"/><path class="cls-1" d="M1039.19,463.15c10.38,14,14.93,29.65,13.86,47.7-1.23,20.56-9.31,37.21-24.71,50.88s-32.89,19.74-53.44,18.52c-18-1.06-33-7.38-45.59-19.25l-41.74,37.17c22.8,23.09,51,35.8,84,37.76,35.57,2.11,67.12-8.82,93.78-32.49s41.23-53.71,43.34-89.29c2-33.12-7.39-62.75-27.79-88.18Z"/><g id="Rectangle_1" data-name="Rectangle 1" class="cls-3"><polygon points="1396.19 687.45 1396.19 753.82 1428.11 753.82 1434.28 767.6 1380.96 767.6 1380.96 687.45 1396.19 687.45"/><polygon points="1487.23 711.38 1444.43 811.12 1428.84 811.12 1447.7 766.88 1424.85 711.38 1441.17 711.38 1449.87 735.68 1455.31 751.64 1461.12 736.05 1471.63 711.38 1487.23 711.38"/><path d="M1510.44,711.38l1.09,6.53c4.35-6.89,10.15-8,16-8s11.6,2.18,14.5,5.44l-6.16,12c-2.9-2.54-5.44-3.62-10.16-3.62-7.25,0-14.14,4-14.14,14.14V767.6h-14.15V711Z"/><path d="M1592.05,711.38h13.42V768h-13.06l-.73-8.34c-3.26,6.53-12,9.79-18.49,9.79-16.69,0-29-10.15-29-30.1,0-19.58,13.06-29.74,29.38-29.38,7.62,0,14.87,3.63,18.13,9.07ZM1558,739.31c0,10.88,7.62,17.05,16.69,17.05,22.12,0,22.12-34.1,0-34.1C1565.57,722.26,1558,728.79,1558,739.31Z"/></g><path d="M1295.84,746.15c0,12.75-8.92,22.32-21,22.32a18.88,18.88,0,0,1-17.61-11.19v10.3h-3.74V708.25h4v26.3A19,19,0,0,1,1274.9,724C1286.92,724,1295.84,733.49,1295.84,746.15Zm-4.06,0c0-10.55-7.38-18.58-17.2-18.58-10.15,0-17.21,7.63-17.21,18.58s7.06,18.67,17.21,18.67C1284.48,764.82,1291.78,756.87,1291.78,746.15Z"/><path d="M1345.66,724.81,1321,782.11h-4l6.25-14.53h-.65l-18.1-42.77h4.3l16.15,39,16.48-39Z"/></svg>