<svg id="Layer_1" data-name="Layer 1" xmlns="http://www.w3.org/2000/svg" viewBox="0 0 1920 1080"><defs><style>.cls-1{isolation:isolate;}</style></defs><title>CYCLOPAY_LOGO FINAL v3</title><path d="M795.87,476.49c-28.16-38.12-40.47-80.84-37.54-130,3.32-56.17,25.41-101.66,67.54-139.08s89.9-54,146.09-50.63c48.94,2.9,89.76,20.05,124.2,52.25l114.11-101.63C1148,44.56,1071,10,981,4.62c-97.24-5.77-183.5,24.11-256.36,88.81S611.88,240.27,606.13,337.5c-5.36,90.34,20.1,171.18,75.62,240.63Z"/><path d="M1123.78,240c28.39,38.22,40.82,81.07,37.9,130.41-3.35,56.21-25.44,101.7-67.54,139.09s-89.91,54-146.1,50.63C898.9,557.25,858,540,823.43,507.51L709.32,609.14C771.65,672.26,848.81,707,939,712.36c97.24,5.76,183.49-24.12,256.36-88.82s112.71-146.81,118.49-244.07c5.36-90.56-20.22-171.55-76-241.08Z"/><path d="M654.92,868.32a26.14,26.14,0,0,1,19.35,7.94l1.56,1.57,14.49-14.48-1.57-1.57a47.61,47.61,0,1,0,0,67.34l1.57-1.57-14.49-14.48-1.56,1.57a27.2,27.2,0,1,1-19.35-46.32Z"/><path d="M842.94,868.32a26.14,26.14,0,0,1,19.35,7.94l1.56,1.57,14.48-14.48-1.56-1.57a47.61,47.61,0,1,0,0,67.34l1.56-1.57-14.48-14.48-1.56,1.57a27.2,27.2,0,1,1-19.35-46.32Z"/><rect x="888.89" y="808.13" width="20.64" height="133.78"/><path d="M1069.49,847.84a42.21,42.21,0,0,0-24.38,7.29v-5.85h-20.48v142.8h20.48v-56c6.84,4.63,15,7,24.38,7a46.51,46.51,0,0,0,33.9-13.94,47.52,47.52,0,0,0,0-67.43A46.68,46.68,0,0,0,1069.49,847.84Zm0,74.74a22.71,22.71,0,0,1-16.47-6.36c-4.43-4.23-7.09-9.84-7.91-16.69v-8.17c.82-6.83,3.48-12.45,7.91-16.68a22.73,22.73,0,0,1,16.47-6.36,26.5,26.5,0,0,1,19.44,7.87,27.06,27.06,0,0,1,0,38.44A26.38,26.38,0,0,1,1069.49,922.58Z"/><path d="M1198.51,855.13a42.16,42.16,0,0,0-24.37-7.29,47.61,47.61,0,1,0,0,95.22,42.16,42.16,0,0,0,24.37-7.29v6.14H1219V849.28h-20.48Zm0,43.92c-.82,7-3.48,12.69-7.92,17a22.44,22.44,0,0,1-16.45,6.5,27.13,27.13,0,1,1,0-54.26,22.41,22.41,0,0,1,16.45,6.5c4.44,4.34,7.1,10.07,7.92,17Z"/><path d="M1312.51,907.11q.18-2,.18-4V849.28h-20.45v53.84a19.43,19.43,0,0,1-38.85,0V849.28h-20.45v53.84A40,40,0,0,0,1292.22,938v5.1A28.38,28.38,0,0,1,1283.6,964a28,28,0,0,1-20.79,8.68c-8.41,0-15.24-2.83-20.86-8.66l-1.51-1.57L1226,977l1.48,1.52c9.53,9.75,21.44,14.7,35.38,14.7a50,50,0,0,0,49.88-50v-36Z"/><path d="M783.57,907.11q.18-2,.18-4V849.28H763.31v53.84a19.43,19.43,0,0,1-38.86,0V849.28H704v53.84A40,40,0,0,0,763.29,938v5.1A28.38,28.38,0,0,1,754.67,964a28,28,0,0,1-20.8,8.68A27.57,27.57,0,0,1,713,964l-1.51-1.57L697,977l1.48,1.52c9.53,9.75,21.43,14.7,35.37,14.7a50,50,0,0,0,49.88-50v-36Z"/><path d="M945,911.28a27.17,27.17,0,0,1,40.36-35.94l15.33-13.66a47.64,47.64,0,0,0-71,63.26Z"/><path d="M989.09,879.5a27.19,27.19,0,0,1-4,36.22,27.16,27.16,0,0,1-36.38-.27l-15.34,13.66a47.64,47.64,0,0,0,71-63.27Z"/><g id="Rectangle_1" data-name="Rectangle 1" class="cls-1"><polygon points="943.54 1017.57 943.54 1048.97 958.64 1048.97 961.56 1055.49 936.34 1055.49 936.34 1017.57 943.54 1017.57"/><polygon points="986.62 1028.9 966.37 1076.09 958.99 1076.09 967.91 1055.15 957.1 1028.9 964.82 1028.9 968.94 1040.39 971.51 1047.94 974.26 1040.57 979.24 1028.9 986.62 1028.9"/><path d="M997.6,1028.9l.51,3.09c2.06-3.26,4.81-3.78,7.55-3.78s5.49,1,6.87,2.57l-2.92,5.67a6.37,6.37,0,0,0-4.81-1.72c-3.43,0-6.69,1.89-6.69,6.69v14.07h-6.69v-26.76Z"/><path d="M1036.2,1028.9h6.35v26.77h-6.17l-.35-4c-1.54,3.09-5.66,4.63-8.75,4.63-7.89,0-13.73-4.8-13.73-14.24,0-9.27,6.18-14.07,13.9-13.9,3.61,0,7,1.72,8.58,4.29Zm-16.12,13.21c0,5.15,3.6,8.06,7.89,8.06,10.47,0,10.47-16.13,0-16.13A7.71,7.71,0,0,0,1020.08,1042.11Z"/></g><path d="M896.07,1045.35c0,6-4.23,10.56-10,10.56a8.93,8.93,0,0,1-8.33-5.3v4.87H876v-28.07h1.88v12.44a9,9,0,0,1,8.26-5C891.84,1034.86,896.07,1039.36,896.07,1045.35Zm-1.92,0c0-5-3.5-8.8-8.14-8.8-4.8,0-8.15,3.61-8.15,8.8s3.35,8.83,8.15,8.83S894.15,1050.42,894.15,1045.35Z"/><path d="M919.64,1035.25,908,1062.36h-1.88l3-6.88h-.31l-8.56-20.23h2l7.64,18.43,7.8-18.43Z"/></svg>