<svg id="Layer_1" data-name="Layer 1" xmlns="http://www.w3.org/2000/svg" viewBox="0 0 1920 1080"><defs><style>.cls-1{fill:#919191;}.cls-2{fill:#3b3b3b;}</style></defs><title>CYCLOPAY_LOGO FINAL v3</title><path class="cls-1" d="M784.08,516c-30.17-40.85-43.36-86.61-40.22-139.26,3.55-60.18,27.22-108.93,72.37-149s96.33-57.81,156.53-54.25c52.43,3.11,96.17,21.49,133.07,56L1228.1,120.58C1161.37,53.21,1078.86,16.13,982.43,10.41c-104.2-6.18-196.62,25.84-274.68,95.17s-120.81,157.33-127,261.51c-5.74,96.8,21.54,183.41,81,257.82Z"/><path class="cls-2" d="M1135.43,262.65c30.41,41,43.73,86.87,40.6,139.74-3.58,60.21-27.25,109-72.36,149s-96.33,57.82-156.54,54.25c-52.65-3.12-96.53-21.63-133.52-56.41L691.35,658.13C758.14,725.77,840.8,763,937.46,768.73c104.19,6.18,196.61-25.84,274.68-95.17s120.77-157.3,127-261.51c5.74-97-21.67-183.8-81.4-258.3Z"/><path class="cls-2" d="M631.87,935.93a28.12,28.12,0,0,1,20.83,8.55l1.69,1.69L670,930.58l-1.69-1.68a51.25,51.25,0,1,0,0,72.48L670,999.7l-15.59-15.59-1.69,1.68a29.27,29.27,0,1,1-20.83-49.86Z"/><path class="cls-2" d="M834.27,935.93a28.12,28.12,0,0,1,20.83,8.55l1.69,1.69,15.59-15.59-1.69-1.68a51.25,51.25,0,1,0,0,72.48l1.69-1.68-15.59-15.59-1.69,1.68a29.27,29.27,0,1,1-20.83-49.86Z"/><rect class="cls-2" x="883.74" y="871.14" width="22.22" height="144.01"/><path class="cls-2" d="M1078.16,913.89a45.33,45.33,0,0,0-26.24,7.85v-6.3h-22.05v153.73h22.05v-60.28c7.36,5,16.16,7.5,26.24,7.5a50.12,50.12,0,0,0,36.5-15,51.16,51.16,0,0,0,0-72.59A50.22,50.22,0,0,0,1078.16,913.89Zm0,80.46a24.45,24.45,0,0,1-17.73-6.85c-4.77-4.56-7.63-10.6-8.51-18v-8.8c.88-7.36,3.74-13.4,8.51-18a24.45,24.45,0,0,1,17.73-6.85,28.57,28.57,0,0,1,20.93,8.48,29.13,29.13,0,0,1,0,41.38A28.38,28.38,0,0,1,1078.16,994.35Z"/><path class="cls-2" d="M1217.05,921.74a45.33,45.33,0,0,0-26.24-7.85,51.25,51.25,0,1,0,0,102.5,45.41,45.41,0,0,0,26.24-7.85v6.61h22V915.44h-22Zm0,47.27c-.88,7.5-3.75,13.66-8.53,18.34a24.12,24.12,0,0,1-17.71,7,29.21,29.21,0,1,1,0-58.42,24.14,24.14,0,0,1,17.71,7c4.78,4.68,7.65,10.84,8.53,18.33Z"/><path class="cls-2" d="M1339.77,977.69c.13-1.41.19-2.84.19-4.3V915.44h-22v57.95a20.92,20.92,0,0,1-41.83,0V915.44h-22v57.95a43.05,43.05,0,0,0,63.82,37.59v5.48a30.51,30.51,0,0,1-9.28,22.49,30.07,30.07,0,0,1-22.38,9.35c-9.06,0-16.4-3-22.46-9.32l-1.63-1.69-15.59,15.59,1.59,1.63c10.27,10.5,23.08,15.83,38.09,15.83a53.84,53.84,0,0,0,53.7-53.88V977.69Z"/><path class="cls-2" d="M770.37,977.69c.13-1.41.19-2.84.19-4.3V915.44h-22v57.95a20.92,20.92,0,0,1-41.83,0V915.44h-22v57.95A43.05,43.05,0,0,0,748.53,1011v5.48a30.51,30.51,0,0,1-9.28,22.49,30.07,30.07,0,0,1-22.38,9.35c-9.06,0-16.4-3-22.46-9.32l-1.63-1.69-15.59,15.59,1.59,1.63c10.26,10.5,23.08,15.83,38.09,15.83a53.83,53.83,0,0,0,53.69-53.88V977.69Z"/><path class="cls-1" d="M944.17,982.18a29.25,29.25,0,0,1,43.44-38.69l16.51-14.7a51.29,51.29,0,0,0-76.46,68.1Z"/><path class="cls-2" d="M991.61,948a29.24,29.24,0,0,1-43.45,38.7l-16.51,14.7a51.28,51.28,0,0,0,76.47-68.1Z"/></svg>