<svg id="Layer_1" data-name="Layer 1" xmlns="http://www.w3.org/2000/svg" viewBox="0 0 1920 1080"><defs><style>.cls-1{fill:#e810ff;}.cls-2{fill:#1636bf;}.cls-3{isolation:isolate;}</style></defs><title>CYCLOPAY_LOGO FINAL v3</title><path class="cls-1" d="M796.58,472.41c-28.16-38.13-40.47-80.84-37.54-130,3.32-56.17,25.41-101.67,67.54-139.08s89.9-54,146.09-50.64c48.94,2.9,89.76,20.06,124.2,52.26L1211,103.35C1148.7,40.47,1071.69,5.87,981.7.53,884.45-5.24,798.2,24.65,725.34,89.35S612.59,236.19,606.84,333.42c-5.36,90.34,20.1,171.18,75.62,240.62Z"/><path class="cls-2" d="M1124.49,235.94c28.39,38.23,40.82,81.08,37.9,130.42-3.34,56.2-25.44,101.7-67.54,139.09s-89.91,54-146.1,50.63c-49.14-2.92-90.09-20.19-124.61-52.65L710,605.05c62.33,63.12,139.48,97.86,229.69,103.22,97.24,5.77,183.5-24.11,256.36-88.82s112.71-146.81,118.5-244.07c5.35-90.55-20.22-171.54-76-241.07Z"/><path class="cls-2" d="M655.63,864.23A26.11,26.11,0,0,1,675,872.18l1.57,1.56L691,859.26l-1.57-1.56a47.62,47.62,0,1,0,0,67.33l1.57-1.56L676.55,909,675,910.55a27.19,27.19,0,1,1-19.35-46.32Z"/><path class="cls-2" d="M843.65,864.23A26.11,26.11,0,0,1,863,872.18l1.56,1.56L879,859.26l-1.56-1.56a47.62,47.62,0,1,0,0,67.33l1.56-1.56L864.56,909,863,910.55a27.19,27.19,0,1,1-19.35-46.32Z"/><rect class="cls-2" x="889.6" y="804.05" width="20.64" height="133.78"/><path class="cls-2" d="M1070.2,843.75a42.15,42.15,0,0,0-24.38,7.3V845.2h-20.47V988h20.47V932c6.85,4.63,15,7,24.38,7A46.55,46.55,0,0,0,1104.11,925a47.51,47.51,0,0,0,0-67.43A46.64,46.64,0,0,0,1070.2,843.75Zm0,74.75a22.73,22.73,0,0,1-16.47-6.36c-4.43-4.24-7.09-9.85-7.91-16.69v-8.17c.82-6.84,3.48-12.45,7.91-16.69a22.73,22.73,0,0,1,16.47-6.36,26.55,26.55,0,0,1,19.45,7.88,27.05,27.05,0,0,1,0,38.44A26.41,26.41,0,0,1,1070.2,918.5Z"/><path class="cls-2" d="M1199.23,851.05a42.15,42.15,0,0,0-24.38-7.3,47.62,47.62,0,0,0,0,95.23,42.15,42.15,0,0,0,24.38-7.3v6.15h20.48V845.2h-20.48Zm0,43.91c-.82,7-3.49,12.69-7.93,17a22.39,22.39,0,0,1-16.45,6.51,27.14,27.14,0,1,1,0-54.27,22.45,22.45,0,0,1,16.45,6.5c4.44,4.35,7.11,10.08,7.93,17Z"/><path class="cls-2" d="M1313.22,903c.12-1.31.18-2.64.18-4V845.2H1293V899a19.43,19.43,0,0,1-38.85,0V845.2h-20.45V899A40,40,0,0,0,1292.94,934V939a28.36,28.36,0,0,1-8.62,20.89,28,28,0,0,1-20.8,8.69,27.58,27.58,0,0,1-20.86-8.67l-1.51-1.57-14.48,14.49,1.48,1.51c9.53,9.76,21.43,14.71,35.37,14.71A50,50,0,0,0,1313.4,939V903Z"/><path class="cls-2" d="M784.29,903c.12-1.31.18-2.64.18-4V845.2H764V899a19.43,19.43,0,0,1-38.86,0V845.2H704.71V899A40,40,0,0,0,764,934V939a28.36,28.36,0,0,1-8.62,20.89,28,28,0,0,1-20.8,8.69A27.54,27.54,0,0,1,713.73,960l-1.52-1.57-14.48,14.49,1.48,1.51c9.53,9.76,21.43,14.71,35.37,14.71A50,50,0,0,0,784.47,939V903Z"/><path class="cls-1" d="M945.73,907.2a27.17,27.17,0,0,1,40.36-35.94l15.34-13.66a47.64,47.64,0,0,0-71,63.26Z"/><path class="cls-2" d="M989.8,875.42a27.17,27.17,0,0,1-40.36,36L934.1,925a47.64,47.64,0,0,0,71-63.26Z"/><g id="Rectangle_1" data-name="Rectangle 1" class="cls-3"><polygon points="944.26 1013.49 944.26 1044.89 959.36 1044.89 962.27 1051.41 937.05 1051.41 937.05 1013.49 944.26 1013.49"/><polygon points="987.33 1024.81 967.08 1072 959.7 1072 968.62 1051.07 957.81 1024.81 965.53 1024.81 969.65 1036.31 972.23 1043.86 974.97 1036.48 979.95 1024.81 987.33 1024.81"/><path d="M998.31,1024.81l.51,3.09c2.06-3.26,4.81-3.77,7.55-3.77s5.49,1,6.87,2.57l-2.92,5.66a6.35,6.35,0,0,0-4.8-1.71c-3.44,0-6.7,1.88-6.7,6.69v14.07h-6.69v-26.77Z"/><path d="M1036.92,1024.81h6.35v26.77h-6.18l-.34-3.95c-1.55,3.09-5.67,4.64-8.76,4.64-7.89,0-13.72-4.81-13.72-14.25,0-9.26,6.17-14.07,13.9-13.89,3.6,0,7,1.71,8.58,4.29ZM1020.79,1038c0,5.15,3.6,8.07,7.89,8.07,10.47,0,10.47-16.13,0-16.13A7.7,7.7,0,0,0,1020.79,1038Z"/></g><path d="M896.78,1041.26c0,6-4.22,10.56-9.95,10.56a8.92,8.92,0,0,1-8.33-5.3v4.88h-1.77v-28.07h1.89v12.44a9,9,0,0,1,8.25-5C892.56,1030.78,896.78,1035.27,896.78,1041.26Zm-1.92,0c0-5-3.49-8.79-8.14-8.79-4.8,0-8.14,3.61-8.14,8.79s3.34,8.83,8.14,8.83S894.86,1046.33,894.86,1041.26Z"/><path d="M920.35,1031.16l-11.68,27.11h-1.88l3-6.87h-.31l-8.56-20.24h2l7.65,18.44,7.79-18.44Z"/></svg>