<svg id="Layer_1" data-name="Layer 1" xmlns="http://www.w3.org/2000/svg" viewBox="0 0 1920 1080"><defs><style>.cls-1{fill:#919191;}.cls-2{fill:#3b3b3b;}.cls-3{fill:#1636bf;}.cls-4{isolation:isolate;}</style></defs><title>CYCLOPAY_LOGO FINAL v3</title><path class="cls-1" d="M149.4,632.57c-22.1-29.91-31.75-63.41-29.46-102,2.61-44.07,19.94-79.76,53-109.11s70.53-42.33,114.6-39.72c38.4,2.27,70.42,15.73,97.43,41l89.52-79.72c-48.85-49.33-109.26-76.48-179.87-80.66-76.28-4.53-144,18.91-201.11,69.67S5.06,447.26.55,523.54c-4.2,70.87,15.77,134.29,59.32,188.76Z"/><path class="cls-2" d="M406.64,447.07c22.26,30,32,63.6,29.73,102.31-2.63,44.09-20,79.78-53,109.11s-70.53,42.34-114.61,39.72c-38.55-2.29-70.67-15.84-97.75-41.3L81.5,736.63c48.9,49.52,109.42,76.77,180.19,81,76.29,4.53,144-18.91,201.11-69.67s88.42-115.17,93-191.47c4.2-71-15.86-134.58-59.6-189.12Z"/><path class="cls-3" d="M1343.33,498.58c6.79,9.15,9.77,19.41,9.07,31.23a48.38,48.38,0,0,1-51.16,45.43c-11.77-.7-21.57-4.83-29.84-12.61L1244.07,587c14.93,15.12,33.41,23.44,55,24.72,23.29,1.38,43.94-5.78,61.39-21.27s27-35.16,28.38-58.45c1.28-21.69-4.84-41.08-18.19-57.73Z"/><path class="cls-2" d="M747.4,478.16c13.68,0,25,4.63,34.49,14.16l2.79,2.79L810.5,469.3l-2.79-2.79c-16.5-16.5-36.79-24.86-60.31-24.86-23.33,0-43.53,8.36-60,24.86s-24.86,36.68-24.86,60,8.37,43.53,24.86,60,36.69,24.85,60,24.85c23.52,0,43.81-8.36,60.31-24.85l2.79-2.8-25.82-25.81-2.79,2.79c-9.53,9.53-20.81,14.16-34.49,14.16a48.37,48.37,0,1,1,0-96.73Z"/><path class="cls-2" d="M1082.57,478.16c13.68,0,25,4.63,34.5,14.16l2.79,2.79,25.81-25.81-2.79-2.79c-16.5-16.5-36.79-24.86-60.31-24.86-23.33,0-43.52,8.36-60,24.86s-24.85,36.68-24.85,60,8.36,43.53,24.85,60,36.69,24.85,60,24.85c23.52,0,43.81-8.36,60.31-24.85l2.79-2.8-25.81-25.81-2.79,2.79c-9.53,9.53-20.82,14.16-34.5,14.16a48.37,48.37,0,1,1,0-96.73Z"/><rect class="cls-2" x="1164.49" y="370.86" width="36.8" height="238.49"/><path class="cls-2" d="M1486.44,441.65c-16.29,0-30.87,4.37-43.45,13V444.23h-36.51V698.8H1443V599c12.2,8.26,26.78,12.43,43.45,12.43,23.52,0,43.86-8.36,60.45-24.85s25-36.68,25-60c0-23.53-8.42-43.78-25-60.18S1510,441.65,1486.44,441.65Zm0,133.24c-11.77,0-21.37-3.71-29.35-11.33S1444.45,546,1443,533.81V519.24c1.46-12.19,6.2-22.2,14.1-29.75s17.59-11.33,29.35-11.33c13.7,0,25,4.59,34.67,14s14.28,20.66,14.28,34.33c0,13.47-4.68,24.66-14.29,34.19S1500.13,574.89,1486.44,574.89Z"/><path class="cls-2" d="M1716.46,454.65c-12.58-8.63-27.16-13-43.46-13-23.33,0-43.52,8.36-60,24.86s-24.86,36.68-24.86,60,8.36,43.53,24.86,60,36.68,24.85,60,24.85c16.3,0,30.88-4.37,43.46-13v11H1753V444.23h-36.51Zm0,78.29c-1.46,12.41-6.22,22.62-14.13,30.36s-17.57,11.59-29.33,11.59a48.37,48.37,0,1,1,0-96.73c11.76,0,21.35,3.79,29.33,11.59s12.67,17.95,14.13,30.36Z"/><path class="cls-2" d="M1919.68,547.31q.32-3.49.32-7.12v-96h-36.45v96a34.64,34.64,0,0,1-69.27,0v-96h-36.45v96a71.29,71.29,0,0,0,105.68,62.25v9.08c0,14.63-5,26.81-15.36,37.24s-22.46,15.49-37.07,15.49c-15,0-27.16-5.06-37.19-15.45l-2.7-2.8-25.82,25.82,2.64,2.7c17,17.4,38.21,26.22,63.07,26.22,24.45,0,45.61-8.82,62.89-26.2s26-38.58,26-63V547.31Z"/><path class="cls-2" d="M976.75,547.31q.32-3.49.32-7.12v-96H940.62v96a34.64,34.64,0,0,1-69.27,0v-96H834.9v96a71.29,71.29,0,0,0,105.68,62.25v9.08c0,14.63-5,26.81-15.36,37.24s-22.45,15.49-37.07,15.49c-15,0-27.16-5.06-37.19-15.45l-2.7-2.8-25.81,25.82,2.63,2.7c17,17.4,38.21,26.22,63.07,26.22,24.45,0,45.61-8.82,62.89-26.2s26-38.58,26-63V547.31Z"/><path class="cls-2" d="M1264.56,554.75c-6.75-9.13-9.69-19.37-9-31.14a48.41,48.41,0,0,1,51.18-45.45c11.72.69,21.5,4.8,29.75,12.52l27.34-24.35c-14.92-15.06-33.37-23.35-54.93-24.63-23.3-1.38-44,5.77-61.42,21.28s-27,35.18-28.39,58.47c-1.28,21.64,4.82,41,18.12,57.65Z"/><path class="cls-2" d="M1343.12,498.1c6.8,9.16,9.78,19.42,9.08,31.24A48.41,48.41,0,0,1,1301,574.8c-11.77-.7-21.58-4.84-29.86-12.62l-27.33,24.35c14.93,15.12,33.41,23.44,55,24.73,23.29,1.38,44-5.78,61.42-21.28s27-35.17,28.39-58.48c1.28-21.69-4.85-41.09-18.21-57.75Z"/><g id="Rectangle_1" data-name="Rectangle 1" class="cls-4"><polygon points="1576.94 645 1576.94 688.47 1597.85 688.47 1601.88 697.5 1566.96 697.5 1566.96 645 1576.94 645"/><polygon points="1636.56 660.68 1608.53 726 1598.32 726 1610.67 697.02 1595.71 660.68 1606.4 660.68 1612.1 676.59 1615.66 687.04 1619.46 676.83 1626.35 660.68 1636.56 660.68"/><path d="M1651.77,660.68l.71,4.27c2.85-4.51,6.65-5.22,10.45-5.22s7.6,1.42,9.5,3.56l-4,7.84a8.81,8.81,0,0,0-6.65-2.38c-4.75,0-9.26,2.62-9.26,9.27V697.5h-9.27V660.44Z"/><path d="M1705.21,660.68H1714v37.05h-8.55l-.48-5.46c-2.13,4.28-7.84,6.41-12.11,6.41-10.93,0-19-6.65-19-19.71,0-12.83,8.55-19.48,19.24-19.24,5,0,9.74,2.37,11.87,5.94ZM1682.88,679c0,7.12,5,11.16,10.93,11.16,14.49,0,14.49-22.33,0-22.33C1687.87,667.8,1682.88,672.08,1682.88,679Z"/></g><path d="M1511.22,683.45c0,8.35-5.85,14.62-13.77,14.62a12.38,12.38,0,0,1-11.54-7.34v6.75h-2.44V658.62h2.6v17.23a12.44,12.44,0,0,1,11.43-6.91C1505.37,668.94,1511.22,675.16,1511.22,683.45Zm-2.66,0c0-6.91-4.84-12.17-11.27-12.17-6.65,0-11.27,5-11.27,12.17s4.62,12.23,11.27,12.23C1503.78,695.68,1508.56,690.47,1508.56,683.45Z"/><path d="M1543.84,669.47,1527.68,707h-2.6l4.09-9.52h-.42l-11.86-28h2.82L1530.29,695l10.79-25.52Z"/></svg>